# xmcd CD database file
#
# Track frame offsets:
#	150
#	13802
#	29795
#	51970
#	69857
#	82029
#	102222
#	113712
#	133675
#	150800
#	167050
#	184227
#	202512
#	225905
#	250557
#	268235
#	290635
#	297257
#
# Disc length: 4270 seconds
#
# Revision: 1
# Processed by: cddbd v1.4PL0 Copyright (c) Steve Scherf et al.
# Submitted via: CD2WAV32(EN) R3.19
#
DISCID=f310ac12
DTITLE=Lightnin' Hopkins - Mojo Hand
DYEAR=1900
DGENRE=
TTITLE0=Mojo Hand
TTITLE1=Coffee For Mama
TTITLE2=Awful Dream
TTITLE3=Black Mare Trot
TTITLE4=Have You Ever Loved A Woman
TTITLE5=Glory Bee
TTITLE6=Sometimes She Will
TTITLE7=Shine On, Moon!
TTITLE8=Santa
TTITLE9=How Long Has The Train Been Gone
TTITLE10=Bring Me My Shotgun
TTITLE11=Shake That Thing
TTITLE12=Last Night
TTITLE13=Walk A Long Time
TTITLE14=I'm Leaving With You Now
TTITLE15=Houston Bound
TTITLE16=Just Pickin'
TTITLE17=Baby I Don't Care
EXTD=
EXTT0=
EXTT1=
EXTT2=
EXTT3=
EXTT4=
EXTT5=
EXTT6=
EXTT7=
EXTT8=
EXTT9=
EXTT10=
EXTT11=
EXTT12=
EXTT13=
EXTT14=
EXTT15=
EXTT16=
EXTT17=
PLAYORDER=
